<svg width="62" height="61" viewBox="0 0 62 61" fill="none" xmlns="http://www.w3.org/2000/svg">
<path d="M45.4894 8.1491H56.8161C59.1378 8.1491 61.0199 10.0312 61.0199 12.3528V18.6584M26.8062 8.1491H11.6261M11.6261 8.1491H5.20372C2.88207 8.1491 1 10.0312 1 12.3528V32.9044M11.6261 8.1491L36.3814 32.9044L57.2832 13.0534M61.0199 18.6584V55.9081C61.0199 58.2297 59.1378 60.1118 56.8161 60.1118H51.9118M61.0199 18.6584L41.7528 38.5093L58.3341 54.9739M51.9118 60.1118H5.20373C2.88207 60.1118 1 58.2297 1 55.9081V41.7789M51.9118 60.1118L18.3988 24.964L1 41.7789M1 41.7789V32.9044M1 32.9044L13.9615 20.1764L4.26956 10.9516M35.7975 25.8982C32.8783 22.3561 28.0907 11.2085 29.959 5.69693C32.2944 -1.19251 42.8037 -0.608669 43.3876 8.1491C43.5744 10.9516 40.9354 19.7327 35.7975 25.8982ZM36.3814 4.87953C38.3806 4.94402 39.9828 6.61835 39.8845 8.61617C39.7909 10.5166 38.2831 11.9413 36.3814 12.0025C34.413 12.0659 32.7414 10.5831 32.6447 8.61617C32.5433 6.55497 34.3187 4.81299 36.3814 4.87953Z" stroke="#C8A165" stroke-width="1.5"/>
</svg>
