<svg width="46" height="34" viewBox="0 0 46 34" fill="none" xmlns="http://www.w3.org/2000/svg">
<path d="M35.002 33.5C29.1879 33.4999 24.5 28.9096 24.5 23.2734C24.5001 18.5392 27.4273 9.07915 34.9834 1.01953C35.4241 0.572775 36.1087 0.379136 36.7607 0.579102H36.7627C37.6697 0.854298 38.1631 1.7753 37.9102 2.6377C36.2472 5.52288 35.395 7.97506 34.959 9.71875C34.7396 10.5961 34.6256 11.2941 34.5664 11.7764C34.5368 12.0175 34.5203 12.2048 34.5117 12.334C34.5075 12.3984 34.5053 12.4484 34.5039 12.4834C34.5032 12.5007 34.5032 12.5146 34.5029 12.5244C34.5028 12.5293 34.502 12.5341 34.502 12.5371V12.542L35.002 12.5498L34.502 12.543L34.4951 13.0498H35.002C40.8117 13.0498 45.4999 17.6394 45.5 23.2734C45.5 28.9098 40.8117 33.5 35.002 33.5Z" stroke="#676767"/>
<path d="M11.002 33.5C5.18794 33.4999 0.5 28.9096 0.5 23.2734C0.500109 18.54 3.42619 9.08216 10.9795 1.02344C11.4199 0.573853 12.1068 0.378532 12.7607 0.579102H12.7627C13.6697 0.854292 14.1631 1.77531 13.9102 2.6377C12.2473 5.52288 11.395 7.97506 10.959 9.71875C10.7396 10.5961 10.6256 11.2941 10.5664 11.7764C10.5368 12.0175 10.5203 12.2048 10.5117 12.334C10.5075 12.3984 10.5053 12.4484 10.5039 12.4834C10.5032 12.5007 10.5032 12.5146 10.5029 12.5244C10.5028 12.5293 10.502 12.5341 10.502 12.5371V12.542L11.002 12.5498L10.502 12.543L10.4951 13.0498H11.002C16.8117 13.0498 21.4999 17.6394 21.5 23.2734C21.5 28.9097 16.8117 33.5 11.002 33.5Z" stroke="#676767"/>
</svg>
